<?xml version="1.0" encoding="UTF-8" standalone="no"?>
<svg
   xmlns:dc="http://purl.org/dc/elements/1.1/"
   xmlns:cc="http://creativecommons.org/ns#"
   xmlns:rdf="http://www.w3.org/1999/02/22-rdf-syntax-ns#"
   xmlns:svg="http://www.w3.org/2000/svg"
   xmlns="http://www.w3.org/2000/svg"
   xml:space="preserve"
   style="enable-background:new 0 0 256 256;"
   viewBox="0 0 256 256"
   y="0px"
   x="0px"
   id="Capa_1"
   version="1.1"><metadata
   id="metadata61"><rdf:RDF><cc:Work
       rdf:about=""><dc:format>image/svg+xml</dc:format><dc:type
         rdf:resource="http://purl.org/dc/dcmitype/StillImage" /><dc:title></dc:title></cc:Work></rdf:RDF></metadata><defs
   id="defs59">
	
	
<clipPath
   id="clipPath963"
   clipPathUnits="userSpaceOnUse"><polygon
     style="display:inline;fill:#6b7577"
     id="polygon965"
     points="186.7,225.8 244.3,126.2 186.7,26.5 71.6,26.5 14,126.2 71.6,225.8 "
     class="st0" /></clipPath><clipPath
   id="clipPath967"
   clipPathUnits="userSpaceOnUse"><polygon
     style="display:inline;fill:#6b7577"
     id="polygon969"
     points="186.7,225.8 244.3,126.2 186.7,26.5 71.6,26.5 14,126.2 71.6,225.8 "
     class="st0" /></clipPath><clipPath
   id="clipPath971"
   clipPathUnits="userSpaceOnUse"><polygon
     style="display:inline;fill:#6b7577"
     id="polygon973"
     points="186.7,225.8 244.3,126.2 186.7,26.5 71.6,26.5 14,126.2 71.6,225.8 "
     class="st0" /></clipPath><clipPath
   id="clipPath975"
   clipPathUnits="userSpaceOnUse"><polygon
     style="display:inline;fill:#6b7577"
     id="polygon977"
     points="186.7,225.8 244.3,126.2 186.7,26.5 71.6,26.5 14,126.2 71.6,225.8 "
     class="st0" /></clipPath><clipPath
   id="clipPath979"
   clipPathUnits="userSpaceOnUse"><polygon
     style="display:inline;fill:#6b7577"
     id="polygon981"
     points="186.7,225.8 244.3,126.2 186.7,26.5 71.6,26.5 14,126.2 71.6,225.8 "
     class="st0" /></clipPath><clipPath
   id="clipPath983"
   clipPathUnits="userSpaceOnUse"><polygon
     style="display:inline;fill:#6b7577"
     id="polygon985"
     points="186.7,225.8 244.3,126.2 186.7,26.5 71.6,26.5 14,126.2 71.6,225.8 "
     class="st0" /></clipPath></defs>
<style
   id="style10"
   type="text/css">
	.st0{fill:#6B7577;}
	.st1{clip-path:url(#SVGID_2_);}
	.st2{fill:none;stroke:#000000;stroke-width:4.0523;stroke-miterlimit:10;}
	.st3{clip-path:url(#SVGID_4_);}
	.st4{fill:#E00025;}
	.st5{fill:#F4F4F6;}
	.st6{fill:#664F54;}
</style>
<polygon
   id="polygon12"
   points="186.7,26.5 71.6,26.5 14,126.2 71.6,225.8 186.7,225.8 244.3,126.2 "
   class="st0" /><path
   clip-path="url(#clipPath983)"
   id="path892"
   d="M 186.7,26.5 71.6,225.8"
   style="fill:none;stroke:#000000;stroke-width:4;stroke-linecap:butt;stroke-linejoin:miter;stroke-opacity:1;stroke-miterlimit:4;stroke-dasharray:none" /><path
   clip-path="url(#clipPath979)"
   style="display:inline;fill:none;stroke:#000000;stroke-width:4;stroke-linecap:butt;stroke-linejoin:miter;stroke-miterlimit:4;stroke-dasharray:none;stroke-opacity:1"
   d="M 71.6,26.5 186.7,225.8"
   id="path67" /><path
   clip-path="url(#clipPath975)"
   id="path942"
   d="M 130.99877,26.515413 V 225.69667"
   style="fill:none;stroke:#000000;stroke-width:4;stroke-linecap:butt;stroke-linejoin:miter;stroke-opacity:1;stroke-miterlimit:4;stroke-dasharray:none" /><path
   clip-path="url(#clipPath971)"
   id="path944"
   d="M 43.561036,73.864365 216.28676,173.58761"
   style="fill:none;stroke:#000000;stroke-width:4;stroke-linecap:butt;stroke-linejoin:miter;stroke-opacity:1;stroke-miterlimit:4;stroke-dasharray:none" /><path
   clip-path="url(#clipPath967)"
   id="path946"
   d="M 41.982737,175.50678 216.11194,74.973242"
   style="fill:none;stroke:#000000;stroke-width:4;stroke-linecap:butt;stroke-linejoin:miter;stroke-opacity:1;stroke-miterlimit:4;stroke-dasharray:none" /><path
   clip-path="url(#clipPath963)"
   id="path894"
   d="M 14,126.2 H 244.3"
   style="display:inline;fill:none;stroke:#000000;stroke-width:4;stroke-linecap:butt;stroke-linejoin:miter;stroke-miterlimit:4;stroke-dasharray:none;stroke-opacity:1" />

<polygon
   style="display:inline;fill:#e00025"
   id="polygon48"
   points="176.5,208.3 223.9,126.2 176.5,44.1 81.7,44.1 34.3,126.2 81.7,208.3 "
   class="st4" />
<g
   style="display:inline"
   id="g54">
	<polygon
   style="fill:#f4f4f6"
   id="polygon50"
   points="190,164.4 32.9,250.4 148.8,139.3 139.8,132.2 106.6,164.6 75.6,155.1 73.1,89.5 227.7,6.4 117,117.8 122.4,124.3 156.6,93.3 187.5,98.9 "
   class="st5" />
	<path
   style="fill:#664f54"
   id="path52"
   d="m 222.2,10.4 -105.3,106 -1.3,1.3 1.2,1.4 4.2,5 1.3,1.6 1.5,-1.4 33.1,-30 29.6,5.4 2.5,64 -150,82.2 109.7,-105.1 1.7,-1.6 -1.8,-1.4 -7.5,-5.8 -1.4,-1.1 -1.3,1.2 -32.1,31.4 -29.8,-9.2 -2.4,-64.2 148.1,-79.7 m 11,-8.1 -161,86.7 2.5,66.9 32.3,9.9 33,-32.3 7.5,5.8 -120.7,115.6 164.3,-89.9 -2.6,-66.9 -32.2,-5.8 -33.8,30.6 -4.2,-5 z"
   class="st6" />
</g>
</svg>