<?xml version="1.0" encoding="utf-8"?>
<!-- Generator: Adobe Illustrator 24.0.1, SVG Export Plug-In . SVG Version: 6.00 Build 0)  -->
<svg version="1.1" id="Capa_1" xmlns="http://www.w3.org/2000/svg" xmlns:xlink="http://www.w3.org/1999/xlink" x="0px" y="0px"
	 viewBox="0 0 256 256" style="enable-background:new 0 0 256 256;" xml:space="preserve">
<style type="text/css">
	.st0{fill:#6B7577;}
	.st1{clip-path:url(#SVGID_2_);}
	.st2{fill:none;stroke:#000000;stroke-width:4.0523;stroke-miterlimit:10;}
	.st3{clip-path:url(#SVGID_4_);}
	.st4{fill:#E00025;}
	.st5{fill:#F4F4F6;}
	.st6{fill:#664F54;}
</style>
<polygon class="st0" points="186.7,26.5 71.6,26.5 14,126.2 71.6,225.8 186.7,225.8 244.3,126.2 "/>
<g>
	<g>
		<defs>
			<polygon id="SVGID_1_" points="186.7,26.5 71.6,26.5 14,126.2 71.6,225.8 186.7,225.8 244.3,126.2 			"/>
		</defs>
		<clipPath id="SVGID_2_">
			<use xlink:href="#SVGID_1_"  style="overflow:visible;"/>
		</clipPath>
		<g class="st1">
			<polyline class="st2" points="14,126.2 129.1,125.4 71.6,225.8 			"/>
			<polyline class="st2" points="187.4,224.6 129.1,125.4 244.9,124.9 			"/>
			<polyline class="st2" points="185.9,25.3 129.1,125.4 70.9,25.3 			"/>
		</g>
	</g>
	<g>
		<defs>
			<polygon id="SVGID_3_" points="186.7,26.5 71.6,26.5 14,126.2 71.6,225.8 186.7,225.8 244.3,126.2 			"/>
		</defs>
		<clipPath id="SVGID_4_">
			<use xlink:href="#SVGID_3_"  style="overflow:visible;"/>
		</clipPath>
		<g class="st3">
			<polyline class="st2" points="128.9,10.1 129.7,125.1 29.2,67.6 			"/>
			<polyline class="st2" points="30.5,183.5 129.7,125.1 130.1,241 			"/>
			<polyline class="st2" points="229.8,182.1 129.7,125.1 229.8,66.9 			"/>
		</g>
	</g>
</g>
<polygon class="st4" points="176.5,44.1 81.7,44.1 34.3,126.2 81.7,208.3 176.5,208.3 223.9,126.2 "/>
<g>
	<polygon class="st5" points="148.8,139.3 139.8,132.2 106.6,164.6 75.6,155.1 73.1,89.5 227.7,6.4 117,117.8 122.4,124.3 
		156.6,93.3 187.5,98.9 190,164.4 32.9,250.4 	"/>
	<path class="st6" d="M222.2,10.4l-105.3,106l-1.3,1.3l1.2,1.4l4.2,5l1.3,1.6l1.5-1.4l33.1-30l29.6,5.4l2.5,64L39,245.9l109.7-105.1
		l1.7-1.6l-1.8-1.4l-7.5-5.8l-1.4-1.1l-1.3,1.2l-32.1,31.4l-29.8-9.2l-2.4-64.2L222.2,10.4 M233.2,2.3l-161,86.7l2.5,66.9l32.3,9.9
		l33-32.3l7.5,5.8L26.8,254.9L191.1,165l-2.6-66.9l-32.2-5.8l-33.8,30.6l-4.2-5L233.2,2.3L233.2,2.3z"/>
</g>
</svg>
